<svg width="33" height="33" viewBox="0 0 33 33" fill="none" xmlns="http://www.w3.org/2000/svg">
<path d="M21.0441 33H8.53107C8.27707 33 8.06307 32.81 8.03407 32.557L5.44507 9.90197C5.42907 9.75997 5.47407 9.61897 5.56907 9.51197C5.66407 9.40497 5.79907 9.34497 5.94207 9.34497H23.6331C23.7761 9.34497 23.9111 9.40597 24.0061 9.51197C24.1011 9.61797 24.1461 9.75997 24.1301 9.90197L21.5411 32.556C21.5121 32.81 21.2981 33 21.0441 33ZM8.97707 32H20.5981L23.0731 10.346H6.50207L8.97707 32Z" fill="currentColor"/>
<path d="M23.0701 15.2749H6.58105C6.30505 15.2749 6.08105 15.0509 6.08105 14.7749C6.08105 14.4989 6.30505 14.2749 6.58105 14.2749H23.0701C23.3461 14.2749 23.5701 14.4989 23.5701 14.7749C23.5701 15.0509 23.3461 15.2749 23.0701 15.2749Z" fill="currentColor"/>
<path d="M14.121 22.3539H11.031C10.755 22.3539 10.531 22.1299 10.531 21.8539V18.7649C10.531 18.4889 10.755 18.2649 11.031 18.2649H14.121C14.397 18.2649 14.621 18.4889 14.621 18.7649V21.8539C14.621 22.1309 14.397 22.3539 14.121 22.3539ZM11.531 21.3539H13.621V19.2649H11.531V21.3539Z" fill="currentColor"/>
<path d="M17.7261 28.6351C17.6371 28.6351 17.5471 28.6121 17.4661 28.5621L14.8271 26.9561C14.5911 26.8121 14.5161 26.5051 14.6601 26.2691L16.2661 23.6301C16.4101 23.3931 16.7171 23.3191 16.9531 23.4631L19.5921 25.0691C19.8281 25.2131 19.9031 25.5201 19.7591 25.7561L18.1531 28.3951C18.0591 28.5501 17.8941 28.6351 17.7261 28.6351ZM15.7751 26.3611L17.5591 27.4471L18.6451 25.6631L16.8611 24.5771L15.7751 26.3611Z" fill="currentColor"/>
<path d="M23.6601 15.8991C23.4631 15.8991 23.2671 15.8901 23.0741 15.8731C22.8001 15.8471 22.5971 15.6031 22.6231 15.3281C22.6491 15.0541 22.8831 14.8641 23.1681 14.8771C23.3301 14.8931 23.4941 14.8991 23.6601 14.8991C26.5371 14.8991 28.8781 12.5591 28.8781 9.68211C28.8781 6.80511 26.5371 4.46411 23.6601 4.46411C20.7831 4.46411 18.4431 6.80511 18.4431 9.68211C18.4431 9.95811 18.2191 10.1821 17.9431 10.1821C17.6671 10.1821 17.4431 9.95811 17.4431 9.68211C17.4431 6.25311 20.2321 3.46411 23.6601 3.46411C27.0891 3.46411 29.8781 6.25311 29.8781 9.68211C29.8771 13.1101 27.0881 15.8991 23.6601 15.8991Z" fill="currentColor"/>
<path d="M11.03 10.183C10.792 10.183 10.58 10.011 10.538 9.768L9.02705 1H3.62305C3.34705 1 3.12305 0.776 3.12305 0.5C3.12305 0.224 3.34605 0 3.62305 0H9.44805C9.69105 0 9.89905 0.175 9.94105 0.415L11.524 9.598C11.571 9.87 11.388 10.129 11.116 10.176C11.087 10.181 11.058 10.183 11.03 10.183Z" fill="currentColor"/>
<path d="M23.6331 10.3461C23.3571 10.3461 23.1331 10.1221 23.1331 9.84609V3.96509C23.1331 3.68909 23.3571 3.46509 23.6331 3.46509C23.9091 3.46509 24.1331 3.68909 24.1331 3.96509V9.84609C24.1331 10.1221 23.9101 10.3461 23.6331 10.3461Z" fill="currentColor"/>
<path d="M27.687 14.21C27.559 14.21 27.431 14.161 27.333 14.064L19.28 6.00901C19.085 5.81401 19.085 5.49701 19.28 5.30201C19.475 5.10701 19.792 5.10701 19.987 5.30201L28.041 13.357C28.236 13.552 28.236 13.869 28.041 14.064C27.943 14.161 27.815 14.21 27.687 14.21Z" fill="currentColor"/>
<path d="M23.6331 10.346C23.5051 10.346 23.3771 10.297 23.2791 10.2C23.0841 10.005 23.0841 9.68805 23.2791 9.49305L27.3571 5.41505C27.5521 5.22005 27.8691 5.22005 28.0641 5.41505C28.2591 5.61005 28.2591 5.92705 28.0641 6.12205L23.9861 10.2C23.8891 10.297 23.7611 10.346 23.6331 10.346Z" fill="currentColor"/>
<path d="M29.3771 10.1831H23.6331C23.3571 10.1831 23.1331 9.95911 23.1331 9.68311C23.1331 9.40711 23.3571 9.18311 23.6331 9.18311H29.3771C29.6531 9.18311 29.8771 9.40711 29.8771 9.68311C29.8771 9.95911 29.6541 10.1831 29.3771 10.1831Z" fill="currentColor"/>
</svg>
