<svg width="33" height="33" viewBox="0 0 33 33" fill="none" xmlns="http://www.w3.org/2000/svg">
<path d="M21.2104 6.25083V0.526596C21.2104 0.235774 20.9747 0 20.6838 0H12.3159C12.0251 0 11.7893 0.235774 11.7893 0.526596V6.25083C8.34036 6.52024 5.61646 9.41272 5.61646 12.9296V26.0634C5.61646 28.5505 7.5049 30.6041 9.92309 30.8674V32.4734C9.92309 32.7642 10.1589 33 10.4497 33H22.55C22.8408 33 23.0766 32.7642 23.0766 32.4734V30.8674C25.4948 30.6041 27.3833 28.5505 27.3833 26.0634V12.9296C27.3833 9.41279 24.6593 6.52031 21.2104 6.25083ZM20.1572 1.05319V6.23019H17.0265V5.03208C17.5877 4.81877 17.9882 4.2768 17.9882 3.64173C17.9882 2.82101 17.3206 2.15336 16.4999 2.15336C15.6791 2.15336 15.0115 2.82101 15.0115 3.64173C15.0115 4.2768 15.412 4.81877 15.9733 5.03208V6.23026H12.8425V1.05319H20.1572ZM16.4999 4.07683C16.2599 4.07683 16.0647 3.88164 16.0647 3.64166C16.0647 3.40167 16.2599 3.20648 16.4999 3.20648C16.7398 3.20648 16.935 3.40167 16.935 3.64166C16.935 3.88164 16.7398 4.07683 16.4999 4.07683ZM12.3159 7.28338H20.6838C23.6196 7.28338 26.0381 9.53574 26.3046 12.403H10.3558C10.065 12.403 9.82922 12.6388 9.82922 12.9296C9.82922 13.2204 10.065 13.4562 10.3558 13.4562H26.3301V25.5368H6.66965V13.4562H8.24943C8.54026 13.4562 8.77603 13.2204 8.77603 12.9296C8.77603 12.6388 8.54026 12.403 8.24943 12.403H6.69506C6.96159 9.53581 9.38014 7.28338 12.3159 7.28338ZM10.9763 31.9468V30.8966H22.0234V31.9468H10.9763ZM22.55 29.8434H10.4497C8.54412 29.8434 6.96426 28.4258 6.70714 26.59H26.2926C26.0354 28.4258 24.4556 29.8434 22.55 29.8434Z" fill="currentColor"/>
<path d="M16.4998 24.4838C17.6308 24.4838 18.6189 24.0905 19.3572 23.3465C20.1212 22.5765 20.5543 21.4811 20.5455 20.341C20.5292 18.2275 19.0308 16.3388 18.9671 16.2594C18.8635 16.1306 18.7058 16.0581 18.5404 16.0628C18.3752 16.0679 18.222 16.1503 18.1266 16.2852C18.1266 16.2852 18.0841 16.3453 18.0206 16.4351C17.7627 15.8731 17.3809 15.1878 16.8777 14.6693C16.7786 14.5672 16.6422 14.5095 16.4999 14.5095C16.3576 14.5095 16.2212 14.5672 16.1221 14.6693C15.6189 15.1878 15.237 15.8731 14.9792 16.4351C14.9157 16.3453 14.8732 16.2852 14.8732 16.2852C14.7779 16.1503 14.6246 16.0679 14.4594 16.0628C14.2948 16.0571 14.1362 16.1305 14.0327 16.2594C13.9689 16.3387 12.4706 18.2275 12.4542 20.341C12.4455 21.4811 12.8785 22.5765 13.6426 23.3465C14.3807 24.0905 15.3688 24.4838 16.4998 24.4838ZM14.4503 17.5114L14.5757 17.6887C14.7289 17.9052 14.85 18.0763 15.1437 18.0573C15.3508 18.044 15.5307 17.9103 15.6032 17.716C15.6047 17.7118 15.609 17.7001 15.6152 17.6812C15.7095 17.3987 16.0125 16.5623 16.4998 15.8659C16.9872 16.5623 17.2901 17.3987 17.3844 17.6812C17.3907 17.7001 17.3949 17.7119 17.3964 17.716C17.4876 17.9603 17.7438 18.101 17.9988 18.047C18.2007 18.0043 18.2707 17.9054 18.424 17.6886L18.5493 17.5114C18.9429 18.1539 19.4837 19.2372 19.4923 20.3491C19.499 21.2105 19.1772 22.0325 18.6096 22.6046C18.0734 23.145 17.3438 23.4306 16.4998 23.4306C15.6558 23.4306 14.9262 23.145 14.3901 22.6046C13.8224 22.0325 13.5007 21.2105 13.5074 20.3491C13.5159 19.237 14.0568 18.1538 14.4503 17.5114Z" fill="currentColor"/>
</svg>
