<svg width="40" height="30" viewBox="0 0 40 30" fill="none" xmlns="http://www.w3.org/2000/svg">
<path d="M37.1739 21.6085H33.5602C36.2339 19.8311 38 16.792 38 13.3477C38 7.88163 33.553 3.43466 28.087 3.43466V0.956426C28.087 0.500203 27.7171 0.130371 27.2609 0.130371H22.3044C21.8481 0.130371 21.4783 0.500203 21.4783 0.956426V3.43466H14.0434H10.7391H9.91303C4.44696 3.43466 0 7.88163 0 13.3477C0 16.792 1.76611 19.8311 4.43991 21.6085H0.826055C0.369832 21.6085 0 21.9784 0 22.4346V25.739C0 26.1952 0.369832 26.565 0.826055 26.565H1.65211C1.65211 28.387 3.13441 29.8694 4.95648 29.8694C6.77847 29.8694 8.26084 28.3871 8.26084 26.565H10.7391C11.1953 26.565 11.5651 26.1952 11.5651 25.739C11.5651 25.2827 11.1953 24.9129 10.7391 24.9129H7.8182C7.81048 24.8996 7.8018 24.8871 7.79393 24.8739C7.77887 24.8489 7.76321 24.8241 7.74747 24.7994C7.71163 24.7429 7.67422 24.6877 7.63518 24.6338C7.62338 24.6174 7.61195 24.6008 7.59993 24.5847C7.5767 24.5538 7.55257 24.5236 7.52838 24.4936C7.51376 24.4755 7.49899 24.4574 7.48392 24.4397C7.45958 24.4107 7.43501 24.382 7.40963 24.354C7.39278 24.3352 7.37519 24.3172 7.3579 24.2989C7.31834 24.2571 7.27782 24.2163 7.23633 24.1767C7.21191 24.1533 7.18742 24.1299 7.16226 24.1073C7.14066 24.088 7.11862 24.0693 7.09657 24.0505C7.06733 24.0255 7.03757 24.0012 7.00744 23.9772C6.98903 23.9626 6.97077 23.9478 6.952 23.9336C6.90168 23.8954 6.85054 23.8583 6.79807 23.8229C6.7968 23.8221 6.79562 23.8214 6.79443 23.8206C6.74025 23.7842 6.68459 23.7498 6.62818 23.7166C6.61861 23.711 6.60903 23.7056 6.59938 23.7C6.5455 23.6691 6.4908 23.6395 6.43514 23.6115C6.43135 23.6096 6.42764 23.6075 6.42378 23.6057C6.2988 23.5435 6.16943 23.4892 6.03621 23.4429C6.03228 23.4416 6.02834 23.4403 6.02441 23.439C5.96066 23.4172 5.89609 23.3971 5.8307 23.3792C5.82773 23.3784 5.82476 23.3775 5.82179 23.3767C5.68924 23.3407 5.55342 23.3127 5.41478 23.2934C5.4003 23.2914 5.38583 23.2897 5.37136 23.2878C5.31866 23.2812 5.26552 23.2759 5.21209 23.2717C5.1945 23.2703 5.17705 23.2687 5.15939 23.2676C5.09222 23.2635 5.02468 23.2608 4.95648 23.2608C4.88834 23.2608 4.82073 23.2635 4.75356 23.2676C4.73597 23.2687 4.71846 23.2703 4.70087 23.2717C4.64743 23.2759 4.59429 23.2812 4.54159 23.2878C4.52712 23.2896 4.51257 23.2913 4.4981 23.2934C4.35946 23.3127 4.22364 23.3407 4.09109 23.3767C4.08812 23.3775 4.08515 23.3784 4.08218 23.3792C4.01672 23.3972 3.95222 23.4172 3.88847 23.439C3.88454 23.4403 3.8806 23.4417 3.87667 23.4429C3.74345 23.4892 3.61401 23.5435 3.4891 23.6057C3.48531 23.6076 3.4816 23.6096 3.47782 23.6115C3.42215 23.6395 3.36745 23.6691 3.31357 23.7C3.304 23.7056 3.29435 23.711 3.28477 23.7166C3.22837 23.7498 3.17278 23.7842 3.1186 23.8206C3.11734 23.8214 3.11615 23.8222 3.11496 23.8229C3.06249 23.8583 3.01135 23.8954 2.96103 23.9336C2.94225 23.9478 2.924 23.9626 2.90559 23.9772C2.87546 24.0012 2.8457 24.0255 2.81645 24.0505C2.79441 24.0693 2.77244 24.088 2.75077 24.1073C2.72561 24.13 2.70112 24.1533 2.6767 24.1767C2.63506 24.2163 2.59469 24.257 2.55513 24.2989C2.53784 24.3172 2.52025 24.3353 2.5034 24.354C2.47802 24.3819 2.45352 24.4107 2.42911 24.4397C2.41404 24.4575 2.39927 24.4755 2.38465 24.4936C2.36045 24.5237 2.33633 24.5538 2.3131 24.5847C2.30108 24.6008 2.28965 24.6174 2.27785 24.6338C2.23888 24.6877 2.2014 24.7429 2.16555 24.7994C2.14989 24.8241 2.13416 24.8487 2.11909 24.8739C2.11123 24.8871 2.10247 24.8996 2.09482 24.9129H1.65211V23.2607H4.95648H9.91303H10.7391H14.0434H28.0869H33.0434H36.3478V24.9129H35.9051C35.8975 24.8996 35.8887 24.8871 35.8808 24.8739C35.8658 24.8489 35.8501 24.8241 35.8344 24.7994C35.7985 24.7429 35.7611 24.6877 35.7221 24.6338C35.7103 24.6174 35.6988 24.6008 35.6868 24.5847C35.6636 24.5538 35.6395 24.5236 35.6153 24.4936C35.6007 24.4755 35.5859 24.4574 35.5708 24.4397C35.5465 24.4107 35.5219 24.382 35.4965 24.354C35.4797 24.3352 35.4621 24.3172 35.4448 24.2989C35.4052 24.2571 35.3647 24.2163 35.3232 24.1767C35.2988 24.1533 35.2743 24.1299 35.2492 24.1073C35.2276 24.088 35.2056 24.0693 35.1835 24.0505C35.1542 24.0255 35.1245 24.0012 35.0943 23.9772C35.0759 23.9626 35.0577 23.9478 35.0389 23.9336C34.9886 23.8954 34.9374 23.8583 34.885 23.8229C34.8837 23.8221 34.8825 23.8214 34.8813 23.8206C34.8271 23.7842 34.7715 23.7498 34.7152 23.7166C34.7056 23.711 34.696 23.7056 34.6864 23.7C34.6325 23.6691 34.5778 23.6395 34.5221 23.6115C34.5183 23.6096 34.5146 23.6075 34.5108 23.6057C34.3859 23.5435 34.2565 23.4892 34.1233 23.4429C34.1193 23.4416 34.1154 23.4403 34.1115 23.439C34.0477 23.4172 33.9831 23.3971 33.9177 23.3792C33.9148 23.3784 33.9118 23.3775 33.9088 23.3767C33.7763 23.3407 33.6405 23.3127 33.5018 23.2934C33.4874 23.2914 33.4729 23.2897 33.4584 23.2878C33.4057 23.2812 33.3526 23.2759 33.2991 23.2717C33.2815 23.2703 33.2641 23.2687 33.2464 23.2676C33.1793 23.2635 33.1118 23.2608 33.0435 23.2608C32.9752 23.2608 32.9078 23.2635 32.8406 23.2676C32.823 23.2687 32.8055 23.2703 32.7879 23.2717C32.7345 23.2759 32.6813 23.2812 32.6286 23.2878C32.6142 23.2896 32.5996 23.2913 32.5852 23.2934C32.4466 23.3127 32.3108 23.3407 32.1782 23.3767C32.1752 23.3775 32.1723 23.3784 32.1693 23.3792C32.1038 23.3972 32.0393 23.4172 31.9756 23.439C31.9717 23.4403 31.9677 23.4417 31.9638 23.4429C31.8306 23.4892 31.7011 23.5435 31.5762 23.6057C31.5724 23.6076 31.5687 23.6096 31.5649 23.6115C31.5093 23.6395 31.4546 23.6691 31.4007 23.7C31.3911 23.7056 31.3815 23.711 31.3719 23.7166C31.3155 23.7498 31.2599 23.7842 31.2057 23.8206C31.2045 23.8214 31.2033 23.8222 31.2021 23.8229C31.1496 23.8583 31.0985 23.8954 31.0482 23.9336C31.0294 23.9478 31.0111 23.9626 30.9927 23.9772C30.9626 24.0012 30.9328 24.0255 30.9036 24.0505C30.8815 24.0693 30.8596 24.088 30.8379 24.1073C30.8127 24.13 30.7882 24.1533 30.7638 24.1767C30.7222 24.2163 30.6818 24.257 30.6423 24.2989C30.625 24.3172 30.6074 24.3353 30.5905 24.354C30.5651 24.3819 30.5406 24.4107 30.5162 24.4397C30.5012 24.4575 30.4864 24.4755 30.4718 24.4936C30.4476 24.5237 30.4235 24.5538 30.4002 24.5847C30.3882 24.6008 30.3768 24.6174 30.365 24.6338C30.326 24.6877 30.2885 24.7429 30.2527 24.7994C30.237 24.8241 30.2213 24.8487 30.2062 24.8739C30.1983 24.8871 30.1896 24.8996 30.1819 24.9129H15.6956C15.2394 24.9129 14.8696 25.2827 14.8696 25.739C14.8696 26.1952 15.2394 26.565 15.6956 26.565H29.7391C29.7391 28.387 31.2214 29.8694 33.0434 29.8694C34.8654 29.8694 36.3478 28.3871 36.3478 26.565H37.1739C37.6301 26.565 37.9999 26.1952 37.9999 25.739V22.4346C38 21.9784 37.6302 21.6085 37.1739 21.6085ZM3.4243 25.95C3.42935 25.9374 3.43403 25.9246 3.43945 25.9122C3.4796 25.8193 3.52784 25.7306 3.58365 25.6474C3.58751 25.6416 3.59174 25.636 3.5956 25.6303C3.62024 25.5946 3.64614 25.5599 3.67331 25.5264C3.67939 25.5189 3.68563 25.5113 3.69179 25.5039C3.71932 25.4712 3.74805 25.4396 3.77803 25.4091C3.7833 25.4037 3.78835 25.3981 3.79369 25.3927C3.86353 25.3235 3.93968 25.2607 4.0208 25.2047C4.03394 25.1958 4.04737 25.1873 4.0608 25.1787C4.0876 25.1613 4.11484 25.1447 4.14259 25.1289C4.15937 25.1194 4.17621 25.11 4.19343 25.1011C4.22038 25.087 4.24784 25.074 4.27559 25.0614C4.29244 25.0537 4.30907 25.0455 4.32621 25.0383C4.36829 25.0209 4.41119 25.0052 4.45491 24.9911C4.47168 24.9857 4.48905 24.9816 4.50604 24.9767C4.53662 24.968 4.56742 24.9597 4.59874 24.9528C4.61782 24.9485 4.63704 24.9449 4.65634 24.9413C4.68855 24.9353 4.72113 24.9303 4.75386 24.9263C4.77078 24.9243 4.78763 24.9219 4.80477 24.9203C4.8548 24.916 4.90534 24.9129 4.95648 24.9129C5.00761 24.9129 5.05808 24.916 5.10803 24.9206C5.1251 24.9222 5.14195 24.9246 5.15895 24.9266C5.19175 24.9307 5.22426 24.9356 5.25654 24.9416C5.27577 24.9451 5.29506 24.9488 5.31414 24.9531C5.34546 24.96 5.37626 24.9683 5.40684 24.977C5.42383 24.9819 5.44112 24.9859 5.45797 24.9914C5.50169 25.0053 5.54466 25.0211 5.58667 25.0386C5.60389 25.0458 5.62044 25.054 5.63729 25.0616C5.66504 25.0743 5.69265 25.0872 5.71945 25.1013C5.73652 25.1102 5.75336 25.1196 5.77029 25.1291C5.79804 25.1449 5.82536 25.1615 5.85207 25.1789C5.86543 25.1875 5.87894 25.1959 5.89208 25.205C5.97327 25.261 6.04935 25.3238 6.11919 25.393C6.12453 25.3982 6.12958 25.4039 6.13485 25.4093C6.16476 25.4398 6.19355 25.4714 6.22109 25.5041C6.2274 25.5116 6.23348 25.519 6.23957 25.5266C6.26681 25.5602 6.29278 25.5948 6.31728 25.6305C6.32121 25.6362 6.32537 25.6417 6.32923 25.6476C6.38504 25.7309 6.43328 25.8195 6.47343 25.9124C6.47878 25.9248 6.48345 25.9377 6.48857 25.9503C6.56532 26.1403 6.60859 26.3476 6.60859 26.565C6.60859 27.476 5.86744 28.2172 4.9564 28.2172C4.04537 28.2172 3.30422 27.476 3.30422 26.565C3.30437 26.3477 3.34764 26.1404 3.4243 25.95ZM9.91303 21.6085C5.358 21.6085 1.65218 17.9027 1.65218 13.3477C1.65218 8.79266 5.358 5.08685 9.91303 5.08685V21.6085ZM13.2174 21.6085H11.5652V19.1303H13.2174V21.6085ZM13.2174 17.4781H11.5652V15.8259H13.2174V17.4781ZM13.2174 14.1738H11.5652V12.5216H13.2174V14.1738ZM13.2174 10.8695H11.5652V9.21727H13.2174V10.8695ZM13.2174 7.56509H11.5652V5.08685H13.2174V7.56509ZM23.1304 1.78248H26.4348V3.43466H23.1304V1.78248ZM28.087 21.6085H14.8696V5.08685H22.3044H27.2609H28.087V9.6303C28.087 10.0865 28.4568 10.4564 28.913 10.4564C29.3692 10.4564 29.7391 10.0865 29.7391 9.6303V5.25295C33.5051 6.02045 36.3477 9.35836 36.3477 13.3477C36.3478 17.9027 32.642 21.6085 28.087 21.6085ZM33.0434 28.2173C32.1324 28.2173 31.3913 27.4761 31.3913 26.5651C31.3913 26.3476 31.4345 26.1404 31.5112 25.95C31.5162 25.9374 31.5209 25.9246 31.5263 25.9122C31.5665 25.8193 31.6147 25.7306 31.6706 25.6474C31.6744 25.6416 31.6786 25.636 31.6825 25.6303C31.7071 25.5946 31.733 25.5599 31.7602 25.5264C31.7663 25.5189 31.7725 25.5113 31.7787 25.5039C31.8062 25.4712 31.8349 25.4396 31.8649 25.4091C31.8702 25.4037 31.8752 25.3981 31.8806 25.3927C31.9504 25.3235 32.0266 25.2607 32.1077 25.2047C32.1208 25.1958 32.1343 25.1873 32.1477 25.1787C32.1745 25.1613 32.2017 25.1447 32.2295 25.1289C32.2463 25.1194 32.2631 25.11 32.2803 25.1011C32.3073 25.087 32.3347 25.074 32.3625 25.0614C32.3793 25.0537 32.396 25.0455 32.4131 25.0383C32.4552 25.0209 32.4981 25.0052 32.5418 24.9911C32.5586 24.9857 32.5759 24.9816 32.5929 24.9767C32.6235 24.968 32.6543 24.9597 32.6856 24.9528C32.7047 24.9485 32.7239 24.9449 32.7432 24.9413C32.7754 24.9353 32.808 24.9303 32.8408 24.9263C32.8578 24.9243 32.8746 24.9219 32.8917 24.9203C32.9418 24.916 32.9923 24.9129 33.0434 24.9129C33.0946 24.9129 33.1451 24.916 33.195 24.9206C33.2121 24.9222 33.2289 24.9246 33.2459 24.9266C33.2787 24.9307 33.3112 24.9356 33.3435 24.9416C33.3627 24.9451 33.382 24.9488 33.4011 24.9531C33.4324 24.96 33.4632 24.9683 33.4938 24.977C33.5108 24.9819 33.5281 24.9859 33.5449 24.9914C33.5887 25.0053 33.6316 25.0211 33.6736 25.0386C33.6909 25.0458 33.7074 25.054 33.7243 25.0616C33.752 25.0743 33.7796 25.0872 33.8064 25.1013C33.8235 25.1102 33.8403 25.1196 33.8573 25.1291C33.885 25.1449 33.9123 25.1615 33.939 25.1789C33.9524 25.1875 33.9659 25.1959 33.979 25.205C34.0602 25.261 34.1363 25.3238 34.2062 25.393C34.2115 25.3982 34.2165 25.4039 34.2218 25.4093C34.2517 25.4398 34.2805 25.4714 34.3081 25.5041C34.3142 25.5116 34.3205 25.519 34.3265 25.5266C34.3538 25.5602 34.3798 25.5948 34.4043 25.6305C34.4082 25.6362 34.4124 25.6417 34.4163 25.6476C34.4721 25.7309 34.5203 25.8195 34.5605 25.9124C34.5658 25.9248 34.5705 25.9377 34.5756 25.9503C34.6523 26.1406 34.6956 26.3479 34.6956 26.5653C34.6956 27.4761 33.9545 28.2173 33.0434 28.2173Z" fill="currentColor"/>
</svg>
